<svg xmlns="http://www.w3.org/2000/svg" xmlns:xlink="http://www.w3.org/1999/xlink" width="42" zoomAndPan="magnify" viewBox="0 0 31.5 31.499999" height="42" preserveAspectRatio="xMidYMid meet" version="1.0"><defs><g/><clipPath id="a787f14388"><path d="M 1.269531 1.070312 L 30.359375 1.070312 L 30.359375 30.453125 L 1.269531 30.453125 Z M 1.269531 1.070312 " clip-rule="nonzero"/></clipPath><clipPath id="b13d6600f0"><path d="M 2.769531 1.070312 L 28.730469 1.070312 C 29.558594 1.070312 30.230469 1.742188 30.230469 2.570312 L 30.230469 28.929688 C 30.230469 29.757812 29.558594 30.429688 28.730469 30.429688 L 2.769531 30.429688 C 1.941406 30.429688 1.269531 29.757812 1.269531 28.929688 L 1.269531 2.570312 C 1.269531 1.742188 1.941406 1.070312 2.769531 1.070312 " clip-rule="nonzero"/></clipPath></defs><g clip-path="url(#a787f14388)"><g clip-path="url(#b13d6600f0)"><path fill="#0f172a" d="M 1.269531 1.070312 L 30.210938 1.070312 L 30.210938 30.453125 L 1.269531 30.453125 Z M 1.269531 1.070312 " fill-opacity="1" fill-rule="nonzero"/></g></g><g fill="#43ddff" fill-opacity="1"><g transform="translate(4.587052, 19.499999)"><g><path d="M 4.375 0 L 3.171875 -5.65625 L 2.890625 -4.375 L 2.234375 -1.5625 C 2.222656 -1.445312 2.210938 -1.347656 2.203125 -1.265625 C 2.191406 -1.179688 2.179688 -1.109375 2.171875 -1.046875 C 2.171875 -1.015625 2.1875 -0.988281 2.21875 -0.96875 C 2.257812 -0.925781 2.363281 -0.90625 2.53125 -0.90625 L 2.625 -0.90625 C 2.800781 -0.90625 2.941406 -0.859375 3.046875 -0.765625 C 3.191406 -0.648438 3.234375 -0.460938 3.171875 -0.203125 C 3.140625 -0.046875 3.070312 0.0820312 2.96875 0.1875 C 2.925781 0.226562 2.878906 0.265625 2.828125 0.296875 C 2.785156 0.328125 2.734375 0.347656 2.671875 0.359375 C 2.617188 0.378906 2.5625 0.390625 2.5 0.390625 L 2.15625 0.375 C 1.9375 0.363281 1.753906 0.351562 1.609375 0.34375 C 1.460938 0.34375 1.34375 0.34375 1.25 0.34375 C 1.1875 0.34375 1.117188 0.34375 1.046875 0.34375 C 0.972656 0.34375 0.890625 0.34375 0.796875 0.34375 C 0.710938 0.351562 0.617188 0.359375 0.515625 0.359375 C 0.421875 0.359375 0.316406 0.359375 0.203125 0.359375 C 0.0976562 0.367188 -0.015625 0.378906 -0.140625 0.390625 L -0.15625 0.390625 C -0.382812 0.390625 -0.546875 0.289062 -0.640625 0.09375 C -0.691406 -0.03125 -0.703125 -0.175781 -0.671875 -0.34375 L -0.671875 -0.375 C -0.597656 -0.601562 -0.488281 -0.753906 -0.34375 -0.828125 C -0.238281 -0.878906 -0.0976562 -0.90625 0.078125 -0.90625 C 0.285156 -0.90625 0.429688 -0.9375 0.515625 -1 C 0.609375 -1.0625 0.675781 -1.128906 0.71875 -1.203125 C 0.757812 -1.316406 0.816406 -1.488281 0.890625 -1.71875 L 1.5625 -4.578125 L 2.203125 -7.28125 C 2.222656 -7.394531 2.234375 -7.5 2.234375 -7.59375 C 2.242188 -7.695312 2.242188 -7.753906 2.234375 -7.765625 C 2.234375 -7.804688 2.222656 -7.835938 2.203125 -7.859375 C 2.171875 -7.867188 2.117188 -7.882812 2.046875 -7.90625 C 1.972656 -7.925781 1.882812 -7.945312 1.78125 -7.96875 L 1.78125 -7.984375 L 1.765625 -7.984375 C 1.753906 -7.984375 1.738281 -7.984375 1.71875 -7.984375 C 1.707031 -7.992188 1.691406 -8 1.671875 -8 C 1.660156 -8.007812 1.644531 -8.015625 1.625 -8.015625 C 1.539062 -8.023438 1.460938 -8.050781 1.390625 -8.09375 C 1.316406 -8.144531 1.265625 -8.222656 1.234375 -8.328125 C 1.191406 -8.421875 1.1875 -8.546875 1.21875 -8.703125 L 1.234375 -8.703125 L 1.234375 -8.71875 C 1.242188 -8.78125 1.257812 -8.835938 1.28125 -8.890625 C 1.3125 -8.941406 1.347656 -8.992188 1.390625 -9.046875 C 1.429688 -9.097656 1.488281 -9.140625 1.5625 -9.171875 C 1.675781 -9.234375 1.828125 -9.265625 2.015625 -9.265625 C 2.597656 -9.265625 3.070312 -9.226562 3.4375 -9.15625 C 3.625 -9.113281 3.800781 -9.046875 3.96875 -8.953125 C 4.144531 -8.867188 4.300781 -8.765625 4.4375 -8.640625 C 4.519531 -8.546875 4.597656 -8.4375 4.671875 -8.3125 C 4.753906 -8.195312 4.816406 -8.070312 4.859375 -7.9375 C 4.898438 -7.800781 4.9375 -7.65625 4.96875 -7.5 L 5.96875 -2.890625 L 7.25 -4.90625 L 9.875 -9.015625 L 9.96875 -9.1875 L 10.96875 -9.1875 C 11.09375 -9.1875 11.21875 -9.1875 11.34375 -9.1875 C 11.476562 -9.1875 11.613281 -9.1875 11.75 -9.1875 C 11.882812 -9.195312 12.023438 -9.203125 12.171875 -9.203125 C 12.316406 -9.210938 12.460938 -9.21875 12.609375 -9.21875 L 12.625 -9.21875 C 12.863281 -9.21875 13.03125 -9.125 13.125 -8.9375 C 13.144531 -8.851562 13.15625 -8.773438 13.15625 -8.703125 C 13.164062 -8.628906 13.160156 -8.554688 13.140625 -8.484375 C 13.078125 -8.234375 12.96875 -8.070312 12.8125 -8 C 12.695312 -7.945312 12.554688 -7.921875 12.390625 -7.921875 C 12.335938 -7.921875 12.285156 -7.914062 12.234375 -7.90625 C 12.191406 -7.90625 12.148438 -7.898438 12.109375 -7.890625 C 12.078125 -7.878906 12.046875 -7.867188 12.015625 -7.859375 C 11.992188 -7.859375 11.972656 -7.851562 11.953125 -7.84375 C 11.847656 -7.769531 11.78125 -7.691406 11.75 -7.609375 C 11.6875 -7.492188 11.628906 -7.328125 11.578125 -7.109375 L 10.296875 -1.5625 C 10.253906 -1.351562 10.234375 -1.1875 10.234375 -1.0625 C 10.234375 -1.03125 10.25 -1 10.28125 -0.96875 C 10.34375 -0.925781 10.453125 -0.90625 10.609375 -0.90625 L 10.703125 -0.90625 C 10.867188 -0.90625 11.003906 -0.859375 11.109375 -0.765625 C 11.203125 -0.679688 11.253906 -0.578125 11.265625 -0.453125 C 11.273438 -0.328125 11.265625 -0.242188 11.234375 -0.203125 C 11.222656 -0.148438 11.207031 -0.0976562 11.1875 -0.046875 C 11.164062 -0.00390625 11.144531 0.0351562 11.125 0.078125 C 11.101562 0.117188 11.070312 0.15625 11.03125 0.1875 C 10.914062 0.320312 10.765625 0.390625 10.578125 0.390625 L 10.5625 0.390625 C 9.96875 0.359375 9.414062 0.34375 8.90625 0.34375 C 8.769531 0.34375 8.632812 0.34375 8.5 0.34375 C 8.363281 0.34375 8.222656 0.34375 8.078125 0.34375 C 7.929688 0.351562 7.785156 0.359375 7.640625 0.359375 C 7.492188 0.367188 7.34375 0.378906 7.1875 0.390625 L 7.171875 0.390625 C 7.078125 0.390625 6.984375 0.363281 6.890625 0.3125 C 6.796875 0.257812 6.722656 0.1875 6.671875 0.09375 C 6.617188 -0.03125 6.613281 -0.175781 6.65625 -0.34375 L 6.65625 -0.375 C 6.726562 -0.601562 6.832031 -0.753906 6.96875 -0.828125 C 7.070312 -0.878906 7.21875 -0.90625 7.40625 -0.90625 C 7.613281 -0.90625 7.765625 -0.9375 7.859375 -1 C 7.953125 -1.0625 8.015625 -1.132812 8.046875 -1.21875 C 8.109375 -1.34375 8.171875 -1.507812 8.234375 -1.71875 L 9.078125 -5.390625 L 8.40625 -4.3125 L 5.578125 0.109375 C 5.453125 0.316406 5.25 0.421875 4.96875 0.421875 C 4.675781 0.421875 4.484375 0.300781 4.390625 0.0625 L 4.375 0.03125 Z M 4.375 0 "/></g></g></g><g fill="#43ddff" fill-opacity="1"><g transform="translate(18.454113, 19.499999)"><g><path d="M -0.65625 0.109375 C -0.726562 -0.0234375 -0.738281 -0.1875 -0.6875 -0.375 C -0.625 -0.613281 -0.515625 -0.765625 -0.359375 -0.828125 C -0.253906 -0.878906 -0.109375 -0.90625 0.078125 -0.90625 C 0.273438 -0.90625 0.421875 -0.9375 0.515625 -1 C 0.609375 -1.0625 0.675781 -1.132812 0.71875 -1.21875 C 0.769531 -1.34375 0.828125 -1.507812 0.890625 -1.71875 L 2.1875 -7.265625 C 2.21875 -7.484375 2.234375 -7.644531 2.234375 -7.75 C 2.234375 -7.8125 2.222656 -7.851562 2.203125 -7.875 C 2.191406 -7.875 2.179688 -7.875 2.171875 -7.875 C 2.171875 -7.875 2.160156 -7.875 2.140625 -7.875 C 2.117188 -7.882812 2.097656 -7.890625 2.078125 -7.890625 C 2.054688 -7.898438 2.023438 -7.90625 1.984375 -7.90625 C 1.953125 -7.914062 1.910156 -7.921875 1.859375 -7.921875 L 1.78125 -7.921875 C 1.601562 -7.921875 1.460938 -7.96875 1.359375 -8.0625 C 1.253906 -8.144531 1.195312 -8.242188 1.1875 -8.359375 C 1.175781 -8.484375 1.179688 -8.570312 1.203125 -8.625 L 1.21875 -8.65625 L 1.21875 -8.6875 C 1.238281 -8.726562 1.253906 -8.769531 1.265625 -8.8125 C 1.285156 -8.851562 1.3125 -8.890625 1.34375 -8.921875 C 1.375 -8.960938 1.40625 -9 1.4375 -9.03125 C 1.570312 -9.15625 1.722656 -9.21875 1.890625 -9.21875 L 1.90625 -9.21875 C 2.5 -9.195312 3.050781 -9.1875 3.5625 -9.1875 L 5.65625 -9.1875 C 6.519531 -9.1875 7.316406 -9.003906 8.046875 -8.640625 C 8.328125 -8.492188 8.550781 -8.300781 8.71875 -8.0625 C 8.882812 -7.820312 8.976562 -7.550781 9 -7.25 C 9.019531 -6.945312 8.988281 -6.609375 8.90625 -6.234375 C 8.769531 -5.609375 8.457031 -5.050781 7.96875 -4.5625 C 7.738281 -4.332031 7.484375 -4.125 7.203125 -3.9375 C 6.929688 -3.757812 6.632812 -3.601562 6.3125 -3.46875 C 5.675781 -3.207031 5.046875 -3.078125 4.421875 -3.078125 C 4.222656 -3.078125 4.03125 -3.085938 3.84375 -3.109375 C 3.664062 -3.140625 3.488281 -3.171875 3.3125 -3.203125 L 2.9375 -1.5625 C 2.90625 -1.351562 2.890625 -1.1875 2.890625 -1.0625 C 2.898438 -1.019531 2.910156 -0.988281 2.921875 -0.96875 C 2.929688 -0.96875 2.941406 -0.960938 2.953125 -0.953125 C 2.972656 -0.941406 3.007812 -0.929688 3.0625 -0.921875 C 3.125 -0.910156 3.191406 -0.90625 3.265625 -0.90625 L 3.34375 -0.90625 C 3.519531 -0.90625 3.660156 -0.859375 3.765625 -0.765625 C 3.910156 -0.660156 3.960938 -0.472656 3.921875 -0.203125 L 3.90625 -0.1875 L 3.90625 -0.15625 C 3.863281 -0.0195312 3.796875 0.09375 3.703125 0.1875 C 3.578125 0.320312 3.421875 0.390625 3.234375 0.390625 L 3.21875 0.390625 C 2.632812 0.359375 2.0625 0.34375 1.5 0.34375 C 1.25 0.34375 0.984375 0.34375 0.703125 0.34375 C 0.429688 0.351562 0.140625 0.367188 -0.171875 0.390625 L -0.1875 0.390625 C -0.394531 0.390625 -0.550781 0.296875 -0.65625 0.109375 Z M 5.140625 -4.59375 C 5.304688 -4.644531 5.46875 -4.722656 5.625 -4.828125 C 5.789062 -4.929688 5.941406 -5.054688 6.078125 -5.203125 C 6.210938 -5.347656 6.328125 -5.515625 6.421875 -5.703125 C 6.523438 -5.890625 6.609375 -6.109375 6.671875 -6.359375 C 6.828125 -7.015625 6.742188 -7.429688 6.421875 -7.609375 C 6.015625 -7.847656 5.550781 -7.96875 5.03125 -7.96875 C 4.925781 -7.96875 4.835938 -7.960938 4.765625 -7.953125 C 4.691406 -7.941406 4.632812 -7.925781 4.59375 -7.90625 C 4.5625 -7.894531 4.535156 -7.878906 4.515625 -7.859375 C 4.492188 -7.835938 4.46875 -7.800781 4.4375 -7.75 C 4.375 -7.644531 4.3125 -7.453125 4.25 -7.171875 L 3.625 -4.453125 C 3.769531 -4.421875 3.945312 -4.40625 4.15625 -4.40625 C 4.3125 -4.40625 4.46875 -4.421875 4.625 -4.453125 C 4.789062 -4.484375 4.960938 -4.53125 5.140625 -4.59375 Z M 5.140625 -4.59375 "/></g></g></g></svg>