<svg xmlns="http://www.w3.org/2000/svg" xmlns:xlink="http://www.w3.org/1999/xlink" width="107" zoomAndPan="magnify" viewBox="0 0 80.25 30.000001" height="40" preserveAspectRatio="xMidYMid meet" version="1.0"><defs><g/></defs><g fill="#e2e8f0" fill-opacity="1"><g transform="translate(1.753743, 16.69355)"><g><path d="M 8.078125 -6.140625 L 6.0625 -6.140625 L 4.109375 -1.53125 L 1.890625 -6.140625 L 0.15625 -6.140625 L 0.15625 -5.859375 L 0.984375 -5.859375 L 0.984375 -0.28125 L 0.15625 -0.28125 L 0.15625 0 L 2.234375 0 C 2.191406 -0.164062 2.097656 -0.257812 1.953125 -0.28125 L 1.40625 -0.28125 L 1.40625 -4.296875 L 3.609375 0.078125 L 3.8125 0.078125 L 6.0625 -5.15625 L 6.0625 -0.28125 L 5.25 -0.28125 L 5.25 0 L 8.078125 0 C 8.035156 -0.164062 7.941406 -0.257812 7.796875 -0.28125 L 7.265625 -0.28125 L 7.265625 -5.859375 L 8.078125 -5.859375 Z M 8.078125 -6.140625 "/></g></g></g><g fill="#e2e8f0" fill-opacity="1"><g transform="translate(11.02938, 16.69355)"><g><path d="M 6.515625 0 C 6.515625 -0.15625 6.46875 -0.242188 6.375 -0.265625 C 6.34375 -0.273438 6.300781 -0.28125 6.25 -0.28125 L 5.9375 -0.28125 L 3.546875 -6.140625 L 2.90625 -6.140625 L 0.65625 -0.28125 L 0 -0.28125 L 0 0 L 1.859375 0 C 1.859375 -0.15625 1.8125 -0.242188 1.71875 -0.265625 C 1.6875 -0.273438 1.648438 -0.28125 1.609375 -0.28125 L 1.0625 -0.28125 L 1.8125 -2.25 L 3.875 -2.25 L 4.640625 -0.28125 L 3.9375 -0.28125 L 3.9375 0 Z M 3.75 -2.546875 L 1.921875 -2.546875 L 2.84375 -4.9375 Z M 3.75 -2.546875 "/></g></g></g><g fill="#e2e8f0" fill-opacity="1"><g transform="translate(18.565367, 16.69355)"><g><path d="M 3.15625 0 C 3.125 -0.164062 3.035156 -0.257812 2.890625 -0.28125 L 2.34375 -0.28125 L 2.34375 -3.015625 L 5.125 -3.015625 L 5.125 -0.28125 L 4.296875 -0.28125 L 4.296875 0 L 7.1875 0 C 7.132812 -0.164062 7.046875 -0.257812 6.921875 -0.28125 L 6.375 -0.28125 L 6.375 -5.859375 L 7.1875 -5.859375 L 7.1875 -6.140625 L 4.296875 -6.140625 L 4.296875 -5.859375 L 5.125 -5.859375 L 5.125 -3.3125 L 2.34375 -3.3125 L 2.34375 -5.859375 L 3.15625 -5.859375 L 3.15625 -6.140625 L 0.265625 -6.140625 L 0.265625 -5.859375 L 1.078125 -5.859375 L 1.078125 -0.28125 L 0.265625 -0.28125 L 0.265625 0 Z M 3.15625 0 "/></g></g></g><g fill="#e2e8f0" fill-opacity="1"><g transform="translate(27.053045, 16.69355)"><g><path d="M 3.15625 0 C 3.125 -0.164062 3.035156 -0.257812 2.890625 -0.28125 L 2.34375 -0.28125 L 2.34375 -5.859375 L 3.15625 -5.859375 L 3.15625 -6.140625 L 0.265625 -6.140625 L 0.265625 -5.859375 L 1.078125 -5.859375 L 1.078125 -0.28125 L 0.265625 -0.28125 L 0.265625 0 Z M 3.15625 0 "/></g></g></g><g fill="#e2e8f0" fill-opacity="1"><g transform="translate(31.508829, 16.69355)"><g><path d="M 4.46875 0 C 4.40625 -0.164062 4.316406 -0.257812 4.203125 -0.28125 L 3.5 -0.28125 L 3.5 -5.859375 L 3.8125 -5.859375 C 4.3125 -5.859375 4.664062 -5.609375 4.875 -5.109375 C 4.90625 -5.023438 4.9375 -4.941406 4.96875 -4.859375 L 5.234375 -4 L 5.53125 -4 L 5.484375 -6.140625 L 0.265625 -6.140625 L 0.21875 -4 L 0.515625 -4 L 0.78125 -4.859375 C 0.945312 -5.390625 1.210938 -5.707031 1.578125 -5.8125 C 1.679688 -5.84375 1.804688 -5.859375 1.953125 -5.859375 L 2.25 -5.859375 L 2.25 -0.28125 L 1.265625 -0.28125 L 1.265625 0 Z M 4.46875 0 "/></g></g></g><g fill="#e2e8f0" fill-opacity="1"><g transform="translate(38.287556, 16.69355)"><g><path d="M 3.15625 0 C 3.125 -0.164062 3.035156 -0.257812 2.890625 -0.28125 L 2.34375 -0.28125 L 2.34375 -3.015625 L 5.125 -3.015625 L 5.125 -0.28125 L 4.296875 -0.28125 L 4.296875 0 L 7.1875 0 C 7.132812 -0.164062 7.046875 -0.257812 6.921875 -0.28125 L 6.375 -0.28125 L 6.375 -5.859375 L 7.1875 -5.859375 L 7.1875 -6.140625 L 4.296875 -6.140625 L 4.296875 -5.859375 L 5.125 -5.859375 L 5.125 -3.3125 L 2.34375 -3.3125 L 2.34375 -5.859375 L 3.15625 -5.859375 L 3.15625 -6.140625 L 0.265625 -6.140625 L 0.265625 -5.859375 L 1.078125 -5.859375 L 1.078125 -0.28125 L 0.265625 -0.28125 L 0.265625 0 Z M 3.15625 0 "/></g></g></g><g fill="#e2e8f0" fill-opacity="1"><g transform="translate(46.775234, 16.69355)"><g/></g></g><g fill="#e2e8f0" fill-opacity="1"><g transform="translate(49.798362, 16.69355)"><g><path d="M 3.109375 -5.859375 C 3.773438 -5.859375 4.148438 -5.484375 4.234375 -4.734375 C 4.234375 -4.640625 4.234375 -4.546875 4.234375 -4.453125 C 4.234375 -3.546875 3.867188 -3.066406 3.140625 -3.015625 C 3.097656 -3.015625 3.054688 -3.015625 3.015625 -3.015625 L 2.34375 -3.015625 L 2.34375 -5.859375 Z M 3.375 0 C 3.332031 -0.164062 3.238281 -0.257812 3.09375 -0.28125 L 2.34375 -0.28125 L 2.34375 -2.703125 L 3.203125 -2.703125 C 4.359375 -2.703125 5.097656 -3.050781 5.421875 -3.75 C 5.535156 -3.976562 5.59375 -4.234375 5.59375 -4.515625 C 5.59375 -5.160156 5.304688 -5.625 4.734375 -5.90625 C 4.410156 -6.0625 4.019531 -6.140625 3.5625 -6.140625 L 0.265625 -6.140625 L 0.265625 -5.859375 L 1.078125 -5.859375 L 1.078125 -0.28125 L 0.265625 -0.28125 L 0.265625 0 Z M 3.375 0 "/></g></g></g><g fill="#e2e8f0" fill-opacity="1"><g transform="translate(56.577093, 16.69355)"><g><path d="M 6.515625 0 C 6.515625 -0.15625 6.46875 -0.242188 6.375 -0.265625 C 6.34375 -0.273438 6.300781 -0.28125 6.25 -0.28125 L 5.9375 -0.28125 L 3.546875 -6.140625 L 2.90625 -6.140625 L 0.65625 -0.28125 L 0 -0.28125 L 0 0 L 1.859375 0 C 1.859375 -0.15625 1.8125 -0.242188 1.71875 -0.265625 C 1.6875 -0.273438 1.648438 -0.28125 1.609375 -0.28125 L 1.0625 -0.28125 L 1.8125 -2.25 L 3.875 -2.25 L 4.640625 -0.28125 L 3.9375 -0.28125 L 3.9375 0 Z M 3.75 -2.546875 L 1.921875 -2.546875 L 2.84375 -4.9375 Z M 3.75 -2.546875 "/></g></g></g><g fill="#e2e8f0" fill-opacity="1"><g transform="translate(64.113083, 16.69355)"><g><path d="M 0.109375 -5.859375 L 0.921875 -5.859375 L 0.921875 -2.265625 C 0.929688 -0.691406 1.773438 0.0976562 3.453125 0.109375 C 4.566406 0.109375 5.265625 -0.328125 5.546875 -1.203125 C 5.648438 -1.535156 5.703125 -1.929688 5.703125 -2.390625 L 5.703125 -5.859375 L 6.515625 -5.859375 L 6.515625 -6.140625 L 4.515625 -6.140625 L 4.515625 -5.859375 L 5.328125 -5.859375 L 5.328125 -2.328125 C 5.328125 -0.910156 4.773438 -0.195312 3.671875 -0.1875 C 2.898438 -0.1875 2.425781 -0.59375 2.25 -1.40625 C 2.195312 -1.675781 2.171875 -1.988281 2.171875 -2.34375 L 2.171875 -5.859375 L 2.984375 -5.859375 L 2.984375 -6.140625 L 0.109375 -6.140625 Z M 0.109375 -5.859375 "/></g></g></g><g fill="#e2e8f0" fill-opacity="1"><g transform="translate(71.710472, 16.69355)"><g><path d="M 5.125 0 L 5.15625 -2.171875 L 4.890625 -2.171875 L 4.640625 -1.296875 C 4.492188 -0.816406 4.285156 -0.507812 4.015625 -0.375 C 3.867188 -0.3125 3.703125 -0.28125 3.515625 -0.28125 L 2.34375 -0.28125 L 2.34375 -5.859375 L 3.21875 -5.859375 L 3.21875 -6.140625 L 0.265625 -6.140625 L 0.265625 -5.859375 L 1.078125 -5.859375 L 1.078125 -0.28125 L 0.265625 -0.28125 L 0.265625 0 Z M 5.125 0 "/></g></g></g></svg>