<?xml version="1.0" standalone="no"?>
<!DOCTYPE svg PUBLIC "-//W3C//DTD SVG 20010904//EN"
 "http://www.w3.org/TR/2001/REC-SVG-20010904/DTD/svg10.dtd">
<svg version="1.0" xmlns="http://www.w3.org/2000/svg"
 width="703.000000pt" height="581.000000pt" viewBox="0 0 703.000000 581.000000"
 preserveAspectRatio="xMidYMid meet">

<g transform="translate(0.000000,581.000000) scale(0.100000,-0.100000)"
fill="#000000" stroke="none">
<path d="M0 2905 l0 -2905 3515 0 3515 0 0 2905 0 2905 -3515 0 -3515 0 0
-2905z m1277 1723 c13 -12 23 -31 23 -42 0 -27 -39 -66 -67 -66 -30 0 -63 34
-63 65 0 31 33 65 62 65 12 0 32 -10 45 -22z m203 4 c42 -34 16 -112 -38 -112
-24 0 -62 41 -62 66 0 23 42 64 65 64 7 0 23 -8 35 -18z m-411 -6 c7 -8 11
-30 9 -48 -6 -61 -78 -71 -106 -14 -12 23 -11 31 2 52 19 28 75 34 95 10z
m899 -37 l18 -42 16 42 c23 59 38 52 38 -19 0 -64 -19 -85 -21 -22 l-1 37 -12
-34 c-17 -48 -32 -49 -44 -4 l-10 38 -1 -37 c-2 -63 -21 -43 -21 22 0 71 14
77 38 19z m147 31 c-3 -5 -10 -10 -16 -10 -5 0 -9 5 -9 10 0 6 7 10 16 10 8 0
12 -4 9 -10z m55 -4 c0 -8 10 -16 23 -18 18 -2 23 -10 25 -45 2 -26 -1 -43 -7
-43 -6 0 -11 18 -11 41 0 52 -24 48 -28 -4 -5 -60 -22 -42 -22 23 0 33 4 60
10 60 6 0 10 -6 10 -14z m-42 -63 c3 -43 3 -43 -31 -43 -52 0 -59 39 -9 54 12
4 22 12 22 17 0 14 -28 11 -33 -3 -2 -7 -8 -10 -12 -6 -14 13 7 29 33 26 24
-3 27 -8 30 -45z m132 2 c0 -25 -4 -45 -10 -45 -5 0 -10 20 -10 45 0 25 5 45
10 45 6 0 10 -20 10 -45z m30 0 c0 -25 -4 -45 -10 -45 -5 0 -10 20 -10 45 0
25 5 45 10 45 6 0 10 -20 10 -45z m40 0 c0 -25 -4 -45 -10 -45 -5 0 -10 20
-10 45 0 25 5 45 10 45 6 0 10 -20 10 -45z m-570 -470 c0 -8 6 -15 14 -15 7 0
19 -7 26 -15 20 -24 -3 -65 -35 -65 -24 0 -25 3 -25 55 0 30 5 55 10 55 6 0
10 -7 10 -15z m920 -4 c0 -30 -17 -34 -22 -6 -4 17 -1 25 8 25 8 0 14 -9 14
-19z m185 9 c-3 -5 -11 -10 -16 -10 -6 0 -7 5 -4 10 3 6 11 10 16 10 6 0 7 -4
4 -10z m55 -8 c0 -13 7 -18 23 -18 18 1 22 -5 25 -36 2 -22 -1 -38 -7 -38 -6
0 -11 16 -11 36 0 45 -24 42 -28 -4 -5 -53 -22 -36 -22 23 0 30 5 55 10 55 6
0 10 -8 10 -18z m120 8 c0 -5 -4 -10 -10 -10 -5 0 -10 5 -10 10 0 6 5 10 10
10 6 0 10 -4 10 -10z m90 0 c0 -5 -4 -10 -10 -10 -5 0 -10 5 -10 10 0 6 5 10
10 10 6 0 10 -4 10 -10z m350 -15 c0 -14 -4 -25 -10 -25 -5 0 -10 11 -10 25 0
14 5 25 10 25 6 0 10 -11 10 -25z m-1773 -35 c7 -24 10 -46 7 -49 -4 -3 -9 0
-11 7 -3 6 -13 12 -23 12 -10 0 -20 -6 -23 -12 -2 -7 -7 -10 -11 -7 -10 9 25
100 37 96 7 -2 17 -23 24 -47z m333 40 c0 -5 8 -11 18 -11 16 -1 16 -2 0 -6
-12 -3 -18 -14 -18 -33 0 -19 6 -30 18 -34 10 -3 6 -4 -8 -3 -20 2 -26 8 -28
35 -2 17 -8 32 -13 32 -11 0 12 29 24 30 4 0 7 -4 7 -10z m198 -21 c15 -1 15
-2 0 -6 -12 -3 -19 -15 -19 -36 l-2 -32 -4 30 c-3 16 -10 33 -16 37 -9 6 -9 8
1 8 6 0 13 8 13 18 1 16 2 16 6 0 2 -10 12 -19 21 -19z m-720 3 c-23 -4 -25
-58 -3 -65 11 -4 10 -5 -2 -3 -12 1 -20 13 -24 39 -7 43 -5 47 24 39 18 -5 19
-7 5 -10z m-448 -26 c0 -19 6 -37 13 -39 6 -3 -4 -5 -23 -5 -19 0 -27 2 -17 5
11 3 17 14 17 33 0 19 -6 30 -17 33 -14 4 -12 5 5 6 19 1 22 -4 22 -33z m47
-28 c-2 -13 -4 -3 -4 22 0 25 2 35 4 23 2 -13 2 -33 0 -45z m31 11 c-3 -33 -4
-33 -8 8 -3 23 -2 39 3 34 5 -5 7 -24 5 -42z m30 0 c-3 -33 -4 -33 -8 8 -3 23
-2 39 3 34 5 -5 7 -24 5 -42z m77 41 c3 -6 -1 -7 -9 -4 -18 7 -21 14 -7 14 6
0 13 -4 16 -10z m88 3 c3 -5 -5 -8 -18 -8 -13 0 -21 3 -18 8 2 4 10 7 18 7 8
0 16 -3 18 -7z m67 -27 c0 -24 5 -36 18 -39 9 -3 1 -5 -18 -6 -24 0 -30 2 -21
8 9 6 12 20 9 40 -2 17 -1 31 4 31 4 0 8 -15 8 -34z m480 19 c10 -12 10 -21 1
-41 -23 -50 -77 -11 -57 42 7 19 40 18 56 -1z m50 -21 c0 -31 2 -35 15 -24 8
7 15 23 15 36 0 13 5 24 10 24 6 0 10 -18 10 -39 0 -38 -1 -39 -32 -38 -30 2
-33 5 -36 40 -2 21 1 37 7 37 6 0 11 -16 11 -36z m368 -2 c2 -19 10 -32 20
-35 9 -3 1 -5 -18 -5 -19 0 -29 2 -22 5 14 6 16 59 2 66 -6 3 -5 4 2 3 7 -1
14 -17 16 -34z m149 -24 c-2 -13 -4 -3 -4 22 0 25 2 35 4 23 2 -13 2 -33 0
-45z m31 11 c-3 -33 -4 -33 -8 8 -3 23 -2 39 3 34 5 -5 7 -24 5 -42z m30 0
c-3 -33 -4 -33 -8 8 -3 23 -2 39 3 34 5 -5 7 -24 5 -42z m280 9 c2 -22 -1 -38
-7 -38 -6 0 -11 14 -11 30 0 41 -20 38 -22 -2 l-1 -33 -4 33 c-2 17 -8 32 -13
32 -5 0 -11 -15 -13 -32 -3 -28 -4 -27 -5 10 l-2 43 38 -3 c35 -3 37 -5 40
-40z m80 -1 c3 -38 3 -38 -30 -35 -42 4 -51 34 -14 44 14 3 23 10 20 16 -3 5
-12 7 -20 4 -8 -3 -14 -1 -14 5 0 6 12 9 28 7 23 -3 27 -8 30 -41z m162 9 c0
-19 6 -37 13 -39 6 -3 -6 -5 -28 -5 -22 0 -32 2 -22 5 20 5 24 58 5 66 -7 3
-3 6 10 6 19 1 22 -4 22 -33z m90 0 c0 -19 6 -37 13 -39 6 -3 -6 -5 -28 -5
-22 0 -32 2 -22 5 20 5 24 58 5 66 -7 3 -3 6 10 6 19 1 22 -4 22 -33z m-703
-13 c-3 -10 -5 -4 -5 12 0 17 2 24 5 18 2 -7 2 -21 0 -30z m-50 -10 c-3 -10
-5 -4 -5 12 0 17 2 24 5 18 2 -7 2 -21 0 -30z m-1160 -15 c-3 -8 -6 -5 -6 6
-1 11 2 17 5 13 3 -3 4 -12 1 -19z m38 2 c-3 -5 -12 -10 -18 -10 -7 0 -6 4 3
10 19 12 23 12 15 0z m88 -2 c-2 -5 -10 -8 -18 -8 -8 0 -16 3 -18 8 -3 4 5 7
18 7 13 0 21 -3 18 -7z m1887 2 c0 -5 -7 -10 -15 -10 -8 0 -15 5 -15 10 0 6 7
10 15 10 8 0 15 -4 15 -10z m80 0 c0 -5 -7 -10 -15 -10 -8 0 -15 5 -15 10 0 6
7 10 15 10 8 0 15 -4 15 -10z m80 0 c0 -5 -7 -10 -15 -10 -8 0 -15 5 -15 10 0
6 7 10 15 10 8 0 15 -4 15 -10z m-1430 -161 c0 -41 3 -50 15 -45 8 3 15 1 15
-5 0 -6 -10 -9 -22 -7 -20 3 -23 10 -26 50 -2 34 -8 48 -20 51 -10 3 -5 5 11
6 26 1 27 -1 27 -50z m700 26 c0 -14 -4 -25 -10 -25 -5 0 -10 11 -10 25 0 14
5 25 10 25 6 0 10 -11 10 -25z m30 0 c0 -14 -4 -25 -10 -25 -5 0 -10 11 -10
25 0 14 5 25 10 25 6 0 10 -11 10 -25z m267 11 c-3 -8 -11 -32 -18 -55 -7 -23
-16 -41 -22 -41 -5 0 -7 6 -4 14 3 8 11 32 18 55 7 23 16 41 22 41 5 0 7 -6 4
-14z m360 0 c-3 -8 -11 -32 -18 -55 -7 -23 -16 -41 -22 -41 -5 0 -7 6 -4 14 3
8 11 32 18 55 7 23 16 41 22 41 5 0 7 -6 4 -14z m143 -1 c0 -8 9 -15 20 -15
13 0 22 -9 26 -25 8 -31 -10 -55 -42 -55 -22 0 -24 4 -24 55 0 30 5 55 10 55
6 0 10 -7 10 -15z m670 -40 c0 -52 -1 -55 -25 -55 -31 0 -50 32 -35 60 6 11
20 20 30 20 11 0 20 7 20 15 0 8 2 15 5 15 3 0 5 -25 5 -55z m152 8 c2 -39 6
-48 21 -47 9 1 17 -2 17 -7 0 -16 -48 -10 -54 7 -3 9 -6 31 -6 49 0 18 -6 36
-12 38 -7 3 -3 6 9 6 19 1 22 -5 25 -46z m528 22 c0 -14 -4 -25 -10 -25 -5 0
-10 11 -10 25 0 14 5 25 10 25 6 0 10 -11 10 -25z m30 0 c0 -14 -4 -25 -10
-25 -5 0 -10 11 -10 25 0 14 5 25 10 25 6 0 10 -11 10 -25z m-3050 -8 c12 -4
11 -6 -2 -6 -12 -1 -18 -9 -18 -26 0 -13 8 -29 18 -34 15 -9 15 -10 -5 -11
-17 0 -24 7 -29 28 -3 15 -7 32 -9 38 -4 15 17 37 24 25 3 -4 13 -11 21 -14z
m448 -8 c15 -1 15 -2 0 -6 -12 -3 -19 -15 -19 -36 l-2 -32 -4 30 c-3 16 -10
33 -16 37 -9 6 -9 8 1 8 6 0 13 8 13 18 1 16 2 16 6 0 2 -10 12 -19 21 -19z
m1502 21 c0 -5 8 -11 18 -11 16 -1 16 -2 -1 -6 -13 -3 -17 -12 -15 -31 2 -15
9 -26 16 -24 6 1 12 -3 12 -9 0 -6 -10 -9 -22 -7 -18 2 -24 11 -26 36 -2 17
-8 32 -13 32 -11 0 12 29 24 30 4 0 7 -4 7 -10z m-2222 -18 c-23 -4 -25 -58
-3 -65 11 -4 10 -5 -2 -3 -12 1 -20 13 -24 39 -7 43 -5 47 24 39 18 -5 19 -7
5 -10z m-448 -26 c0 -19 6 -37 13 -39 6 -3 -4 -5 -23 -5 -19 0 -27 2 -17 5 11
3 17 14 17 33 0 19 -6 30 -17 33 -14 4 -12 5 5 6 19 1 22 -4 22 -33z m47 -28
c-2 -13 -4 -3 -4 22 0 25 2 35 4 23 2 -13 2 -33 0 -45z m31 11 c-3 -33 -4 -33
-8 8 -3 23 -2 39 3 34 5 -5 7 -24 5 -42z m30 0 c-3 -33 -4 -33 -8 8 -3 23 -2
39 3 34 5 -5 7 -24 5 -42z m77 41 c3 -6 -1 -7 -9 -4 -18 7 -21 14 -7 14 6 0
13 -4 16 -10z m88 3 c3 -5 -5 -8 -18 -8 -13 0 -21 3 -18 8 2 4 10 7 18 7 8 0
16 -3 18 -7z m67 -27 c0 -24 5 -36 18 -39 9 -3 1 -5 -18 -6 -24 0 -30 2 -21 8
9 6 12 20 9 40 -2 17 -1 31 4 31 4 0 8 -15 8 -34z m300 25 c0 -5 -9 -7 -20 -4
-13 4 -20 0 -20 -10 0 -8 9 -17 21 -20 12 -3 19 -12 17 -19 -5 -15 -58 -24
-58 -10 0 6 9 8 20 5 11 -3 20 0 20 6 0 6 -6 11 -14 11 -19 0 -29 17 -22 35 6
16 56 21 56 6z m138 -19 c4 -30 18 -28 26 3 4 14 11 25 16 25 11 0 -19 -92
-34 -102 -18 -13 -29 -9 -17 6 8 10 7 24 -4 55 -11 32 -11 42 -2 38 6 -2 13
-13 15 -25z m222 9 c15 -29 13 -31 -21 -31 -19 0 -28 -4 -23 -11 3 -6 15 -9
25 -6 11 3 17 1 13 -4 -9 -15 -43 -10 -52 9 -14 24 3 62 27 62 11 0 25 -9 31
-19z m238 -19 c2 -19 10 -32 20 -35 9 -3 1 -5 -18 -5 -19 0 -29 2 -22 5 14 6
16 59 2 66 -6 3 -5 4 2 3 7 -1 14 -17 16 -34z m149 -24 c-2 -13 -4 -3 -4 22 0
25 2 35 4 23 2 -13 2 -33 0 -45z m31 11 c-3 -33 -4 -33 -8 8 -3 23 -2 39 3 34
5 -5 7 -24 5 -42z m30 0 c-3 -33 -4 -33 -8 8 -3 23 -2 39 3 34 5 -5 7 -24 5
-42z m537 40 c4 -6 4 -13 0 -17 -3 -3 -10 0 -15 8 -12 20 -33 -1 -28 -26 3
-13 11 -18 26 -17 14 2 21 -1 17 -7 -10 -16 -55 -12 -61 5 -12 30 5 65 31 65
13 0 27 -5 30 -11z m85 1 c0 -5 -6 -7 -14 -4 -8 3 -17 1 -21 -5 -3 -6 5 -15
20 -21 15 -6 25 -16 23 -23 -6 -16 -68 -22 -68 -7 0 7 8 9 20 5 11 -4 20 -2
20 4 0 6 -6 11 -14 11 -19 0 -29 17 -22 35 6 16 56 21 56 5z m90 0 c0 -5 -6
-7 -14 -4 -8 3 -17 1 -21 -5 -3 -6 5 -15 20 -21 15 -6 25 -16 23 -23 -6 -16
-68 -22 -68 -7 0 7 8 9 20 5 11 -4 20 -2 20 4 0 6 -6 11 -14 11 -19 0 -29 17
-22 35 6 16 56 21 56 5z m181 -32 c6 -38 5 -38 -28 -38 -27 0 -33 4 -33 21 0
12 8 23 20 26 11 3 20 10 20 15 0 5 -9 6 -20 3 -12 -4 -20 -2 -20 5 0 6 12 10
27 8 23 -3 29 -9 34 -40z m183 20 c15 -25 -4 -53 -35 -53 -25 0 -37 30 -25 61
8 20 46 14 60 -8z m46 -14 c0 -31 2 -35 15 -24 8 7 15 23 15 36 0 13 5 24 10
24 6 0 10 -17 10 -38 0 -37 -1 -39 -35 -40 -34 -1 -35 -1 -35 38 0 22 5 40 10
40 6 0 10 -16 10 -36z m320 -4 c0 -51 -19 -53 -22 -2 l-1 37 -4 -37 c-5 -47
-22 -50 -25 -5 l-1 32 -4 -32 c-6 -47 -23 -41 -23 7 l0 40 40 0 40 0 0 -40z
m80 20 c14 -26 -3 -60 -30 -60 -11 0 -24 9 -30 20 -14 26 3 60 30 60 11 0 24
-9 30 -20z m136 -39 c7 -20 32 5 37 37 3 19 4 15 6 -13 1 -38 -1 -41 -29 -43
-29 -2 -30 -1 -29 40 1 26 3 33 6 18 2 -14 6 -31 9 -39z m222 32 c3 -19 -1
-23 -23 -23 -16 0 -24 -4 -20 -10 4 -6 16 -8 28 -4 17 5 19 3 11 -6 -7 -6 -22
-10 -35 -8 -28 4 -38 40 -18 64 18 22 53 13 57 -13z m177 16 c4 -6 4 -13 0
-17 -3 -3 -10 0 -15 8 -12 20 -33 -1 -28 -26 3 -13 11 -18 26 -17 14 2 21 -1
17 -7 -16 -25 -65 -2 -65 30 0 33 50 55 65 29z m85 1 c0 -5 -6 -7 -14 -4 -8 3
-17 1 -21 -5 -3 -6 5 -15 20 -21 15 -6 25 -16 23 -23 -5 -15 -58 -22 -58 -8 0
6 6 8 14 5 8 -3 17 -1 21 5 3 6 0 11 -7 11 -20 0 -37 20 -31 36 6 16 53 19 53
4z m90 0 c0 -5 -6 -7 -14 -4 -8 3 -17 1 -21 -5 -3 -6 5 -15 20 -21 15 -6 25
-16 23 -23 -6 -16 -68 -22 -68 -7 0 7 8 9 20 5 11 -4 20 -2 20 4 0 6 -6 11
-14 11 -19 0 -29 17 -22 35 6 16 56 21 56 5z m170 0 c0 -5 -7 -10 -15 -10 -8
0 -15 5 -15 10 0 6 7 10 15 10 8 0 15 -4 15 -10z m-2493 -37 c-3 -10 -5 -4 -5
12 0 17 2 24 5 18 2 -7 2 -21 0 -30z m-50 -10 c-3 -10 -5 -4 -5 12 0 17 2 24
5 18 2 -7 2 -21 0 -30z m-1160 -15 c-3 -8 -6 -5 -6 6 -1 11 2 17 5 13 3 -3 4
-12 1 -19z m38 2 c-3 -5 -12 -10 -18 -10 -7 0 -6 4 3 10 19 12 23 12 15 0z
m88 -2 c-2 -5 -10 -8 -18 -8 -8 0 -16 3 -18 8 -3 4 5 7 18 7 13 0 21 -3 18 -7z
m1437 2 c0 -5 -7 -10 -15 -10 -8 0 -15 5 -15 10 0 6 7 10 15 10 8 0 15 -4 15
-10z m70 0 c0 -5 -7 -10 -15 -10 -8 0 -15 5 -15 10 0 6 7 10 15 10 8 0 15 -4
15 -10z m990 0 c0 -5 -4 -10 -10 -10 -5 0 -10 5 -10 10 0 6 5 10 10 10 6 0 10
-4 10 -10z m630 0 c0 -5 -7 -10 -15 -10 -8 0 -15 5 -15 10 0 6 7 10 15 10 8 0
15 -4 15 -10z m446 -6 c-3 -9 -6 -20 -6 -25 0 -21 -15 -7 -16 16 -1 16 3 25
13 25 10 0 13 -6 9 -16z m-2976 -329 c0 -8 9 -15 20 -15 13 0 22 -9 26 -25 8
-31 -10 -55 -42 -55 -22 0 -24 4 -24 55 0 30 5 55 10 55 6 0 10 -7 10 -15z
m377 -20 c-7 -26 -7 -42 2 -61 9 -20 9 -25 -1 -22 -18 6 -28 56 -16 89 14 41
28 36 15 -6z m92 5 c10 -31 -2 -90 -20 -90 -5 0 -3 11 3 25 8 18 8 35 1 60
-13 43 1 47 16 5z m187 17 c-24 -18 -25 -76 -1 -93 18 -13 18 -14 -3 -14 -15
0 -22 6 -22 19 0 11 -5 23 -11 27 -8 4 -8 9 0 17 6 6 11 21 11 34 0 17 6 23
22 23 20 0 21 -1 4 -13z m-708 -46 c8 -23 11 -45 7 -49 -4 -4 -10 -1 -12 6 -5
14 -43 16 -43 2 0 -5 -5 -10 -10 -10 -6 0 -8 11 -4 28 21 84 39 92 62 23z
m332 39 c0 -5 8 -11 18 -11 16 -1 16 -2 -1 -6 -13 -3 -17 -12 -15 -31 2 -15 9
-26 16 -24 6 1 12 -3 12 -9 0 -6 -10 -9 -22 -7 -18 2 -24 11 -26 36 -2 17 -8
32 -13 32 -11 0 12 29 24 30 4 0 7 -4 7 -10z m-792 -18 c-23 -4 -25 -58 -3
-65 11 -4 10 -5 -2 -3 -12 1 -20 13 -24 39 -7 43 -5 47 24 39 18 -5 19 -7 5
-10z m-355 -10 c-18 -3 -23 -11 -25 -35 l-1 -32 -4 33 c-2 17 -10 32 -16 32
-8 0 -8 3 1 9 7 4 25 5 40 2 25 -5 25 -6 5 -9z m187 8 c0 -5 -7 -7 -15 -4 -8
4 -15 8 -15 10 0 2 7 4 15 4 8 0 15 -4 15 -10z m91 -7 c13 -16 12 -17 -3 -4
-10 7 -25 11 -33 7 -9 -3 -13 -2 -10 4 10 15 31 12 46 -7z m156 11 c-3 -3 -12
-4 -19 -1 -8 3 -5 6 6 6 11 1 17 -2 13 -5z m109 -34 l2 -35 -5 33 c-3 24 -9
32 -21 30 -24 -5 -28 -39 -6 -55 10 -7 13 -13 8 -13 -29 0 -44 46 -22 68 22
22 43 9 44 -28z m41 -22 c-2 -13 -4 -3 -4 22 0 25 2 35 4 23 2 -13 2 -33 0
-45z m49 16 c1 -37 1 -38 -3 -4 -3 19 -10 39 -16 43 -8 6 -7 7 3 4 10 -2 15
-17 16 -43z m364 31 c17 -21 -2 -65 -29 -65 -30 0 -46 26 -33 55 13 28 43 33
62 10z m50 -21 c0 -21 4 -33 10 -29 6 3 10 19 10 36 0 19 5 29 15 29 11 0 15
-11 15 -38 0 -37 -2 -39 -32 -40 -37 -1 -48 11 -48 51 0 17 5 27 15 27 11 0
15 -11 15 -36z m-960 -34 c-20 -13 -40 -13 -40 0 0 5 6 7 14 4 8 -3 17 0 21 6
4 6 10 9 13 5 4 -3 0 -10 -8 -15z m171 -8 c-7 -2 -18 1 -23 6 -8 8 -4 9 13 5
13 -4 18 -8 10 -11z m197 1 c-10 -2 -26 -2 -35 0 -10 3 -2 5 17 5 19 0 27 -2
18 -5z m352 -108 c0 -2 -5 -15 -11 -29 -8 -18 -9 -33 -1 -55 11 -31 0 -45 -12
-15 -14 35 -4 104 15 104 5 0 9 -2 9 -5z m-452 -33 c-23 -4 -25 -58 -3 -65 11
-4 10 -5 -2 -3 -12 1 -20 13 -24 39 -7 43 -5 47 24 39 18 -5 19 -7 5 -10z
m-198 -26 c0 -24 5 -36 18 -39 9 -3 1 -5 -18 -6 -24 0 -30 2 -21 8 9 6 12 20
9 40 -2 17 -1 31 4 31 4 0 8 -15 8 -34z m113 27 c3 -5 -5 -8 -18 -8 -13 0 -21
3 -18 8 2 4 10 7 18 7 8 0 16 -3 18 -7z m247 -27 c0 -24 5 -36 18 -39 9 -3 1
-5 -18 -5 -19 0 -29 2 -22 5 6 2 12 17 12 33 0 16 -6 31 -12 33 -8 3 -6 6 5 6
13 1 17 -7 17 -33z m67 -28 c-2 -13 -4 -3 -4 22 0 25 2 35 4 23 2 -13 2 -33 0
-45z m49 16 c1 -37 1 -38 -3 -4 -3 19 -10 39 -16 43 -8 6 -7 7 3 4 10 -2 15
-17 16 -43z m-346 6 c0 -5 -17 -9 -37 -9 l-38 2 35 7 c19 4 36 8 38 9 1 0 2
-3 2 -9z m160 -30 c-20 -13 -40 -13 -40 0 0 5 6 7 14 4 8 -3 17 0 21 6 4 6 10
9 13 5 4 -3 0 -10 -8 -15z m-189 -8 c-7 -2 -18 1 -23 6 -8 8 -4 9 13 5 13 -4
18 -8 10 -11z m169 -147 c39 -20 38 -28 -5 -48 -33 -16 -37 -16 -70 0 -42 20
-43 28 -7 47 35 19 46 19 82 1z m730 -175 c0 -5 -4 -10 -10 -10 -5 0 -10 5
-10 10 0 6 5 10 10 10 6 0 10 -4 10 -10z m360 0 c0 -5 -4 -10 -10 -10 -5 0
-10 5 -10 10 0 6 5 10 10 10 6 0 10 -4 10 -10z m110 -44 c0 -51 -1 -53 -26
-52 -48 2 -59 61 -14 73 11 3 20 12 20 19 0 8 5 14 10 14 6 0 10 -24 10 -54z
m160 35 c0 -30 -17 -34 -22 -6 -4 17 -1 25 8 25 8 0 14 -9 14 -19z m150 5 c0
-8 10 -16 23 -18 46 -6 29 -78 -19 -78 -22 0 -24 4 -24 55 0 30 5 55 10 55 6
0 10 -6 10 -14z m380 -11 c0 -14 -4 -25 -10 -25 -5 0 -10 11 -10 25 0 14 5 25
10 25 6 0 10 -11 10 -25z m270 -26 c0 -41 3 -50 15 -45 8 3 15 1 15 -5 0 -6
-10 -9 -22 -7 -20 3 -23 10 -26 50 -2 34 -8 48 -20 51 -10 3 -5 5 11 6 26 1
27 -1 27 -50z m816 38 c-24 -18 -25 -76 -1 -93 18 -13 18 -14 -3 -14 -15 0
-22 6 -22 19 0 11 -5 23 -11 27 -8 4 -8 9 0 17 6 6 11 21 11 34 0 17 6 23 22
23 20 0 21 -1 4 -13z m344 -32 c0 -31 5 -47 18 -54 15 -9 15 -10 -4 -11 -25 0
-34 17 -34 65 0 18 -6 36 -12 38 -7 3 -3 6 10 6 20 1 22 -4 22 -44z m730 41
c0 -11 -19 -15 -25 -6 -3 5 1 10 9 10 9 0 16 -2 16 -4z m346 -13 c3 -10 10
-26 15 -35 6 -11 6 -18 0 -18 -5 0 -11 -10 -13 -22 -2 -14 -11 -24 -23 -26
-16 -2 -17 -1 -5 7 19 13 18 90 -1 102 -11 7 -10 9 4 9 10 0 20 -8 23 -17z
m-3766 -3 c0 -5 8 -11 18 -11 16 -1 16 -2 -1 -6 -13 -3 -17 -12 -15 -31 2 -15
9 -26 16 -24 6 1 12 -3 12 -9 0 -6 -10 -9 -22 -7 -18 2 -24 11 -26 36 -2 17
-8 32 -13 32 -11 0 12 29 24 30 4 0 7 -4 7 -10z m1183 -11 c22 0 22 0 -1 -10
-28 -11 -28 -55 1 -53 9 1 17 -2 17 -7 0 -5 -11 -9 -25 -9 -21 0 -25 5 -25 29
0 17 -4 33 -10 36 -6 4 -5 11 3 20 6 7 14 9 15 4 2 -5 13 -9 25 -10z m698 -11
l14 -33 6 35 c6 31 7 29 8 -17 1 -60 -10 -68 -30 -20 l-14 32 -6 -35 c-6 -31
-7 -29 -8 18 -1 59 10 67 30 20z m644 4 c-22 -5 -20 -59 3 -66 10 -3 6 -4 -8
-3 -20 2 -26 8 -28 35 -2 17 -8 32 -13 32 -5 0 -4 6 3 13 9 10 17 11 35 3 16
-8 18 -12 8 -14z m715 5 c12 -4 11 -6 -2 -6 -12 -1 -18 -9 -18 -26 0 -13 8
-29 18 -34 15 -9 15 -10 -5 -11 -17 0 -24 7 -29 28 -3 15 -7 32 -9 38 -4 15
17 37 24 25 3 -4 13 -11 21 -14z m-3560 8 c0 -3 -14 -14 -31 -24 -28 -17 -29
-20 -11 -25 11 -4 26 -14 34 -23 9 -12 2 -10 -30 6 -23 12 -42 23 -42 26 0 2
17 13 38 24 42 23 42 23 42 16z m4210 -40 c0 -3 -18 -14 -40 -25 -48 -25 -52
-20 -7 9 17 11 28 21 22 21 -5 0 -21 10 -35 21 -25 20 -24 20 18 -1 23 -11 42
-22 42 -25z m-4130 26 c0 -5 -9 -7 -20 -4 -12 3 -20 0 -20 -7 0 -6 9 -14 20
-17 30 -8 21 -37 -13 -41 -15 -2 -27 1 -27 6 0 6 9 8 20 5 11 -3 20 0 20 6 0
6 -6 11 -14 11 -19 0 -29 17 -22 35 6 16 56 21 56 6z m88 -3 c22 -22 13 -38
-19 -38 -19 0 -28 -4 -23 -11 3 -6 15 -9 25 -6 11 3 19 1 19 -5 0 -5 -12 -8
-27 -6 -29 3 -41 32 -29 64 7 17 38 18 54 2z m92 -3 c15 -18 -1 -20 -18 -3 -9
9 -15 9 -23 1 -18 -18 -6 -48 19 -47 12 0 22 -3 22 -8 0 -17 -50 -7 -60 12
-23 42 30 81 60 45z m160 -15 c0 -17 7 -33 18 -39 13 -8 9 -10 -23 -10 -32 0
-36 2 -22 10 9 5 17 19 17 29 0 10 -8 24 -17 29 -16 9 -16 10 5 11 18 0 22 -5
22 -30z m110 10 c14 -26 -3 -60 -30 -60 -11 0 -24 9 -30 20 -14 26 3 60 30 60
11 0 24 -9 30 -20z m88 -22 c2 -22 -1 -38 -7 -38 -6 0 -11 16 -11 36 0 31 -2
35 -15 24 -8 -7 -15 -23 -15 -36 0 -13 -4 -24 -10 -24 -5 0 -10 18 -10 39 0
38 1 39 33 38 29 -2 32 -5 35 -39z m162 8 c0 -19 6 -37 13 -39 6 -3 -4 -5 -23
-5 -19 0 -29 2 -22 5 6 2 12 17 12 33 0 16 -6 31 -12 33 -7 3 -3 6 10 6 19 1
22 -4 22 -33z m374 18 c3 -9 6 -27 6 -40 0 -22 -4 -25 -32 -22 -42 4 -51 34
-14 44 14 3 23 10 20 16 -3 5 -12 7 -20 4 -8 -3 -14 -1 -14 4 0 17 47 11 54
-6z m182 1 c4 -8 3 -26 0 -40 -5 -18 -13 -25 -32 -25 -28 0 -39 19 -30 55 5
18 13 25 32 25 13 0 27 -7 30 -15z m44 -21 c0 -45 24 -42 28 4 5 46 22 40 22
-7 0 -38 -1 -39 -32 -38 -30 2 -33 5 -36 40 -2 21 1 37 7 37 6 0 11 -16 11
-36z m400 21 c15 -18 -1 -20 -18 -3 -9 9 -15 9 -23 1 -18 -18 -6 -48 19 -47
12 0 22 -3 22 -8 0 -5 -12 -8 -27 -6 -29 3 -41 32 -29 64 7 18 40 18 56 -1z
m178 -25 c3 -33 1 -36 -28 -38 -24 -2 -30 2 -30 18 0 13 9 22 25 26 14 3 22
11 19 16 -4 5 -15 8 -25 5 -11 -3 -16 -1 -13 5 3 5 16 8 27 6 17 -2 23 -11 25
-38z m65 30 c-30 -12 -29 -18 3 -30 33 -13 26 -35 -12 -37 -20 -1 -22 0 -6 4
24 5 31 23 8 23 -8 0 -18 5 -21 10 -12 19 4 40 27 39 l23 0 -22 -9z m90 0
c-30 -12 -29 -18 3 -30 33 -13 26 -35 -12 -37 -20 -1 -22 0 -6 4 24 5 31 23 8
23 -8 0 -18 5 -21 10 -12 19 4 40 27 39 l23 0 -22 -9z m205 -30 c3 -33 1 -36
-28 -38 -24 -2 -30 2 -30 17 0 11 9 23 20 26 26 8 26 29 0 22 -11 -3 -17 -1
-14 5 3 5 16 8 27 6 17 -2 23 -11 25 -38z m70 -2 c2 -22 -1 -38 -7 -38 -6 0
-12 17 -13 38 l-1 37 -4 -37 c-6 -51 -23 -48 -23 3 0 36 2 40 23 37 18 -2 23
-10 25 -40z m30 -1 c2 -20 -1 -37 -6 -37 -6 0 -12 18 -14 40 -2 25 0 39 7 37
5 -2 11 -20 13 -40z m80 16 c3 -19 -1 -23 -22 -23 -32 0 -34 -17 -3 -23 21 -4
21 -4 1 -6 -33 -2 -49 24 -35 55 14 32 54 30 59 -3z m262 17 c0 -5 -6 -7 -14
-4 -8 3 -17 1 -21 -5 -3 -6 5 -15 20 -21 34 -13 27 -35 -11 -37 -20 -1 -22 0
-6 4 23 5 31 23 9 23 -19 0 -36 20 -30 36 6 16 53 19 53 4z m145 -22 l7 -33
11 33 c5 17 14 32 19 32 10 0 4 -23 -18 -77 -8 -20 -20 -33 -31 -33 -17 1 -17
1 -1 10 15 9 15 14 2 45 -16 39 -18 55 -5 55 5 0 12 -15 16 -32z m219 16 c10
-27 7 -34 -19 -34 -14 0 -25 -5 -25 -11 0 -6 9 -9 20 -6 11 3 20 1 20 -5 0 -5
-12 -8 -27 -6 -47 5 -40 78 7 78 10 0 21 -7 24 -16z m181 5 c4 -6 4 -13 0 -17
-3 -3 -10 0 -15 8 -12 20 -33 -1 -28 -26 3 -13 11 -18 26 -17 14 2 21 -1 17
-7 -16 -25 -65 -2 -65 30 0 33 50 55 65 29z m85 -4 c10 -12 10 -21 1 -41 -23
-50 -77 -11 -57 42 7 19 40 18 56 -1z m92 3 c11 -18 10 -68 -1 -68 -6 0 -11
15 -13 33 -2 17 -7 32 -13 32 -5 0 -11 -15 -13 -32 -4 -46 -22 -41 -22 5 0 34
3 38 27 40 15 1 30 -4 35 -10z m179 -29 c5 -35 5 -36 -28 -37 -26 -1 -33 3
-33 18 0 10 9 22 20 25 26 8 26 29 0 22 -11 -3 -17 -1 -14 5 3 5 16 8 27 6 16
-2 23 -12 28 -39z m79 7 c0 -19 6 -37 13 -39 6 -3 -6 -5 -28 -5 -22 0 -32 2
-22 5 11 3 17 14 17 33 0 19 -6 30 -17 33 -11 3 -7 5 10 6 24 1 27 -2 27 -33z
m99 -8 c-1 -26 -3 -33 -6 -18 -8 47 -12 53 -28 40 -7 -6 -16 -24 -18 -38 -3
-19 -4 -15 -6 13 -1 38 1 41 29 43 29 2 30 1 29 -40z m91 23 c15 -29 13 -31
-21 -31 -19 0 -28 -4 -23 -11 3 -6 15 -9 25 -6 11 3 17 1 13 -4 -9 -15 -43
-10 -52 9 -14 24 3 62 27 62 11 0 25 -9 31 -19z m94 7 c-3 -4 -12 -8 -20 -8
-21 0 -18 -47 4 -53 9 -3 -1 -5 -23 -6 -26 0 -35 2 -26 8 8 6 12 20 9 39 -4
28 -2 30 28 29 18 -1 31 -5 28 -9z m-3056 -15 c-10 -2 -28 -2 -40 0 -13 2 -5
4 17 4 22 1 32 -1 23 -4z m1610 0 c-10 -2 -28 -2 -40 0 -13 2 -5 4 17 4 22 1
32 -1 23 -4z m-1610 -20 c-10 -2 -28 -2 -40 0 -13 2 -5 4 17 4 22 1 32 -1 23
-4z m1610 0 c-10 -2 -28 -2 -40 0 -13 2 -5 4 17 4 22 1 32 -1 23 -4z m622 -23
c0 -5 -7 -10 -15 -10 -8 0 -15 5 -15 10 0 6 7 10 15 10 8 0 15 -4 15 -10z
m-2690 -330 c0 -5 -4 -10 -10 -10 -5 0 -10 5 -10 10 0 6 5 10 10 10 6 0 10 -4
10 -10z m-446 -22 c-3 -13 -12 -37 -20 -55 l-13 -32 -45 25 c-25 14 -46 27
-46 29 0 8 72 47 76 42 3 -3 -9 -13 -27 -23 l-33 -16 35 -18 c24 -13 35 -15
38 -7 12 36 31 77 36 77 4 0 3 -10 -1 -22z m346 12 c0 -5 8 -11 18 -11 16 -1
16 -2 -1 -6 -13 -3 -17 -12 -15 -31 2 -15 9 -26 16 -24 6 1 12 -3 12 -9 0 -6
-10 -9 -22 -7 -18 2 -24 11 -26 36 -2 17 -8 32 -13 32 -11 0 12 29 24 30 4 0
7 -4 7 -10z m390 -45 c0 -6 -16 -19 -35 -28 -19 -9 -35 -13 -35 -8 0 4 12 13
27 20 27 12 27 13 8 27 -10 8 -22 14 -27 14 -4 0 -8 4 -8 10 0 5 16 2 35 -7
19 -9 35 -22 35 -28z m-630 26 c0 -5 -9 -7 -20 -4 -12 3 -20 0 -20 -7 0 -6 9
-14 20 -17 30 -8 21 -37 -13 -41 -15 -2 -27 1 -27 6 0 6 9 8 20 5 11 -3 20 0
20 6 0 6 -6 11 -14 11 -19 0 -29 17 -22 35 6 16 56 21 56 6z m90 -10 c15 -29
13 -31 -21 -31 -19 0 -28 -4 -23 -11 3 -6 15 -9 25 -6 11 3 19 1 19 -4 0 -15
-47 -10 -60 6 -10 12 -10 21 -2 40 14 30 47 33 62 6z m90 4 c15 -18 -1 -20
-18 -3 -9 9 -15 9 -23 1 -18 -18 -6 -48 19 -47 12 0 22 -3 22 -8 0 -17 -50 -7
-60 12 -23 42 30 81 60 45z m160 -15 c0 -17 7 -33 18 -39 13 -8 9 -10 -23 -10
-32 0 -36 2 -22 10 9 5 17 19 17 29 0 10 -8 24 -17 29 -16 9 -16 10 5 11 18 0
22 -5 22 -30z m110 10 c14 -26 -3 -60 -30 -60 -11 0 -24 9 -30 20 -14 26 3 60
30 60 11 0 24 -9 30 -20z m88 -22 c2 -22 -1 -38 -7 -38 -6 0 -11 16 -11 36 0
31 -2 35 -15 24 -8 -7 -15 -23 -15 -36 0 -13 -4 -24 -10 -24 -5 0 -10 18 -10
39 0 38 1 39 33 38 29 -2 32 -5 35 -39z m-924 -191 c19 -14 18 -16 -22 -36
-23 -12 -42 -18 -42 -13 0 5 15 15 32 24 l33 15 -32 17 c-18 9 -34 16 -36 16
-3 0 -10 -20 -17 -45 -7 -25 -14 -45 -15 -45 -5 0 -95 52 -95 55 0 8 72 47 76
42 3 -3 -9 -13 -27 -23 l-33 -16 35 -18 c24 -13 35 -15 38 -7 2 7 10 27 17 45
13 32 14 33 41 18 15 -8 37 -21 47 -29z m-354 -176 c14 -27 13 -64 -4 -86 -13
-18 -14 -15 -9 28 4 30 1 52 -7 62 -8 10 -9 15 -2 15 6 0 16 -9 22 -19z m-171
-221 c1 -14 8 -28 15 -32 8 -6 8 -8 -1 -8 -6 0 -13 -10 -15 -22 -2 -14 -11
-24 -23 -26 -15 -2 -17 -1 -6 6 17 12 17 92 -1 104 -9 7 -7 8 7 6 13 -2 21
-12 24 -28z m638 -467 c-2 -16 -4 -3 -4 27 0 30 2 43 4 28 2 -16 2 -40 0 -55z
m423 32 c0 -31 5 -47 18 -54 9 -6 12 -11 7 -11 -21 0 -35 24 -35 61 0 21 -6
40 -12 42 -8 3 -6 6 5 6 14 1 17 -7 17 -44z m340 31 c0 -8 10 -16 23 -18 46
-6 29 -78 -19 -78 -22 0 -24 4 -24 55 0 30 5 55 10 55 6 0 10 -6 10 -14z
m-592 -27 c15 -1 15 -2 0 -6 -12 -3 -19 -15 -19 -36 l-2 -32 -4 30 c-3 16 -10
33 -16 37 -9 6 -9 8 1 8 6 0 13 8 13 18 1 16 2 16 6 0 2 -10 12 -19 21 -19z
m546 -16 c9 -25 13 -49 10 -52 -4 -3 -9 0 -11 7 -5 14 -43 16 -43 2 0 -5 -5
-10 -10 -10 -10 0 -6 32 11 78 13 34 26 27 43 -25z m351 19 c-22 -5 -20 -59 3
-66 10 -3 6 -4 -8 -3 -20 2 -26 8 -28 35 -2 17 -8 32 -13 32 -5 0 -4 6 3 13 9
10 17 11 35 3 16 -8 18 -12 8 -14z m-1257 0 c-23 -4 -25 -58 -3 -65 11 -4 10
-5 -2 -3 -12 1 -20 13 -24 39 -7 43 -5 47 24 39 18 -5 19 -7 5 -10z m-440 -4
c22 -22 14 -38 -20 -37 -31 2 -31 2 -5 6 31 5 35 17 10 32 -10 6 -13 11 -7 11
5 0 15 -5 22 -12z m73 -13 c5 3 6 0 3 -8 -3 -8 -1 -18 5 -22 6 -3 11 -11 11
-18 0 -6 -6 -2 -14 8 -13 18 -13 18 -24 -1 -6 -10 -12 -14 -12 -8 0 5 5 15 12
22 9 9 9 15 0 24 -7 7 -12 17 -12 23 0 5 5 2 11 -8 6 -9 14 -15 20 -12z m104
15 c3 -6 -1 -7 -9 -4 -18 7 -21 14 -7 14 6 0 13 -4 16 -10z m88 3 c3 -5 -5 -8
-18 -8 -13 0 -21 3 -18 8 2 4 10 7 18 7 8 0 16 -3 18 -7z m67 -27 c0 -24 5
-36 18 -39 9 -3 1 -5 -18 -6 -24 0 -30 2 -21 8 9 6 12 20 9 40 -2 17 -1 31 4
31 4 0 8 -15 8 -34z m268 23 c-10 -5 -18 -19 -18 -29 0 -10 8 -24 18 -29 9 -6
12 -11 7 -11 -16 0 -35 22 -35 40 0 18 19 40 35 40 5 0 2 -5 -7 -11z m120 -15
c2 -17 -3 -22 -27 -26 -24 -3 -31 -1 -31 12 0 40 52 53 58 14z m180 -18 c2
-22 -1 -36 -6 -32 -5 3 -8 19 -6 35 2 21 -1 31 -14 35 -13 4 -12 4 3 3 16 -2
21 -11 23 -41z m55 -29 c8 -6 7 -7 -3 -4 -10 2 -15 17 -16 43 -1 37 -1 38 3 4
3 -19 10 -39 16 -43z m37 32 c0 -22 -4 -38 -8 -35 -8 5 -4 76 4 76 2 0 4 -18
4 -41z m168 34 c-10 -2 -26 -2 -35 0 -10 3 -2 5 17 5 19 0 27 -2 18 -5z m367
-33 c0 -38 -24 -52 -50 -30 -31 25 -9 73 30 68 16 -2 20 -11 20 -38z m45 4 c0
-45 24 -42 28 4 5 45 22 40 22 -6 0 -36 -1 -38 -32 -37 -31 0 -33 3 -36 38 -2
21 1 37 7 37 6 0 11 -16 11 -36z m-1433 -36 c-3 -8 -6 -5 -6 6 -1 11 2 17 5
13 3 -3 4 -12 1 -19z m728 -7 c-6 -5 -25 10 -25 20 0 5 6 4 14 -3 8 -7 12 -15
11 -17z m-884 1 c-7 -2 -18 1 -23 6 -8 8 -4 9 13 5 13 -4 18 -8 10 -11z m194
8 c-3 -5 -12 -10 -18 -10 -7 0 -6 4 3 10 19 12 23 12 15 0z m88 -2 c-2 -5 -10
-8 -18 -8 -8 0 -16 3 -18 8 -3 4 5 7 18 7 13 0 21 -3 18 -7z m898 -6 c-7 -2
-18 1 -23 6 -8 8 -4 9 13 5 13 -4 18 -8 10 -11z m-454 2 c-3 -3 -12 -4 -19 -1
-8 3 -5 6 6 6 11 1 17 -2 13 -5z"/>
<path d="M2086 4547 c-14 -10 -16 -16 -7 -22 15 -9 35 8 30 24 -3 8 -10 7 -23
-2z"/>
<path d="M1760 4030 c0 -21 4 -30 13 -27 6 2 12 14 12 27 0 13 -6 25 -12 28
-9 2 -13 -7 -13 -28z"/>
<path d="M1670 4040 c0 -11 5 -20 10 -20 6 0 10 9 10 20 0 11 -4 20 -10 20 -5
0 -10 -9 -10 -20z"/>
<path d="M1847 4045 c-8 -20 3 -47 17 -42 6 2 11 14 11 27 0 27 -20 38 -28 15z"/>
<path d="M2835 4019 c-4 -6 -5 -13 -2 -16 7 -7 27 6 27 18 0 12 -17 12 -25 -2z"/>
<path d="M3460 3820 c0 -21 4 -30 13 -27 6 2 12 14 12 27 0 13 -6 25 -12 28
-9 2 -13 -7 -13 -28z"/>
<path d="M4084 3835 c-7 -18 2 -45 15 -45 13 0 22 27 15 45 -4 8 -10 15 -15
15 -5 0 -12 -7 -15 -15z"/>
<path d="M2027 3844 c-13 -13 -7 -24 14 -24 11 0 19 5 17 12 -5 14 -22 21 -31
12z"/>
<path d="M3370 3804 c0 -8 5 -12 10 -9 6 3 10 10 10 16 0 5 -4 9 -10 9 -5 0
-10 -7 -10 -16z"/>
<path d="M3547 3835 c-8 -20 3 -47 17 -42 6 2 11 14 11 27 0 27 -20 38 -28 15z"/>
<path d="M3994 3836 c-8 -22 3 -49 19 -43 6 2 12 14 12 27 0 27 -22 39 -31 16z"/>
<path d="M4357 3843 c-12 -11 -8 -23 8 -23 8 0 15 7 15 15 0 16 -12 20 -23 8z"/>
<path d="M1940 3400 c0 -21 4 -30 13 -27 6 2 12 14 12 27 0 13 -6 25 -12 28
-9 2 -13 -7 -13 -28z"/>
<path d="M1855 3417 c-4 -10 -5 -21 -1 -24 10 -10 18 4 13 24 -4 17 -4 17 -12
0z"/>
<path d="M2026 3415 c-6 -17 2 -45 14 -45 12 0 20 28 14 45 -4 8 -10 15 -14
15 -4 0 -10 -7 -14 -15z"/>
<path d="M1426 2995 c-18 -14 -18 -15 8 -26 20 -10 32 -10 52 0 26 11 26 12 8
26 -11 8 -26 14 -34 14 -8 0 -23 -6 -34 -14z"/>
<path d="M2654 2785 c-8 -19 2 -45 16 -45 5 0 10 14 10 30 0 31 -16 41 -26 15z"/>
<path d="M3017 2794 c-4 -4 -7 -18 -7 -31 0 -28 23 -27 28 1 4 20 -11 40 -21
30z"/>
<path d="M1940 2786 c0 -9 7 -16 16 -16 9 0 14 5 12 12 -6 18 -28 21 -28 4z"/>
<path d="M2294 2786 c-8 -22 3 -49 19 -43 6 2 12 14 12 27 0 27 -22 39 -31 16z"/>
<path d="M2925 2759 c-4 -6 -5 -13 -2 -16 7 -7 27 6 27 18 0 12 -17 12 -25 -2z"/>
<path d="M3104 2786 c-8 -21 3 -49 16 -41 5 3 10 15 10 25 0 25 -18 36 -26 16z"/>
<path d="M3727 2764 c-8 -8 1 -24 13 -24 4 0 10 7 14 15 5 15 -14 21 -27 9z"/>
<path d="M4085 2761 c-6 -11 9 -23 19 -14 9 9 7 23 -3 23 -6 0 -12 -4 -16 -9z"/>
<path d="M4267 2793 c-12 -11 -8 -23 8 -23 8 0 15 7 15 15 0 16 -12 20 -23 8z"/>
<path d="M4897 2793 c-12 -11 -8 -23 8 -23 8 0 15 7 15 15 0 16 -12 20 -23 8z"/>
<path d="M5157 2785 c-8 -20 3 -47 17 -42 6 2 11 14 11 27 0 27 -20 38 -28 15z"/>
<path d="M5425 2761 c-6 -11 9 -23 19 -14 9 9 7 23 -3 23 -6 0 -12 -4 -16 -9z"/>
<path d="M5697 2794 c-13 -13 -7 -24 14 -24 11 0 19 5 17 12 -5 14 -22 21 -31
12z"/>
<path d="M2026 2365 c-4 -10 1 -15 14 -15 13 0 18 5 14 15 -4 8 -10 15 -14 15
-4 0 -10 -7 -14 -15z"/>
<path d="M2384 2366 c-8 -22 3 -49 19 -43 6 2 12 14 12 27 0 27 -22 39 -31 16z"/>
<path d="M2477 1323 c-4 -3 -7 -17 -7 -30 0 -33 24 -24 28 10 3 26 -7 35 -21
20z"/>
<path d="M2390 1310 c0 -11 5 -20 10 -20 6 0 10 9 10 20 0 11 -4 20 -10 20 -5
0 -10 -9 -10 -20z"/>
<path d="M1757 1323 c-13 -12 -7 -23 13 -23 11 0 20 7 20 15 0 15 -21 21 -33
8z"/>
<path d="M2564 1315 c-8 -19 2 -45 16 -45 5 0 10 14 10 30 0 31 -16 41 -26 15z"/>
</g>
</svg>
